<svg width="36" height="34" viewBox="0 0 36 34" fill="none" xmlns="http://www.w3.org/2000/svg">
<path d="M2.60597 21.9323C2.86682 21.9323 3.12479 21.8777 3.36349 21.772C3.60219 21.6664 3.81639 21.512 3.99247 21.3187L11.4326 13.1815L18.9526 18.4631C19.3184 18.72 19.7632 18.8377 20.2075 18.7954C20.6518 18.753 21.0667 18.5532 21.3778 18.2319L32.0797 7.19178V11.6663C32.0797 12.1671 32.2777 12.6473 32.6303 13.0014C32.9829 13.3554 33.4611 13.5543 33.9597 13.5543C34.4583 13.5543 34.9365 13.3554 35.289 13.0014C35.6416 12.6473 35.8397 12.1671 35.8397 11.6663V2.6417C35.8534 2.33855 35.7943 2.03652 35.6671 1.76122C35.54 1.48592 35.3486 1.24545 35.1093 1.0602C34.8699 0.874947 34.5896 0.750365 34.2921 0.697011C33.9947 0.643657 33.6888 0.663103 33.4004 0.753701H24.9874C24.4888 0.753701 24.0106 0.952615 23.658 1.30668C23.3054 1.66075 23.1074 2.14097 23.1074 2.6417C23.1074 3.14243 23.3054 3.62265 23.658 3.97672C24.0106 4.33079 24.4888 4.5297 24.9874 4.5297H29.4101L19.7986 14.4417L12.241 9.13642C11.8677 8.8739 11.4122 8.75647 10.9592 8.80595C10.5062 8.85544 10.0865 9.06849 9.77817 9.40546L1.21947 18.7699C0.973316 19.0401 0.81073 19.3764 0.751515 19.7378C0.6923 20.0991 0.739012 20.47 0.885961 20.8051C1.03291 21.1403 1.27375 21.4253 1.57914 21.6255C1.88454 21.8256 2.2413 21.9322 2.60597 21.9323Z" fill="#0066FF"/>
<path d="M35.8401 16.679C35.8401 16.1783 35.642 15.6981 35.2894 15.344C34.9369 14.9899 34.4587 14.791 33.9601 14.791C33.4615 14.791 32.9833 14.9899 32.6307 15.344C32.2782 15.6981 32.0801 16.1783 32.0801 16.679V31.3771C32.0801 31.8778 32.2782 32.358 32.6307 32.7121C32.9833 33.0662 33.4615 33.2651 33.9601 33.2651C34.4587 33.2651 34.9369 33.0662 35.2894 32.7121C35.642 32.358 35.8401 31.8778 35.8401 31.3771V16.679Z" fill="#0066FF"/>
<path d="M26.2463 31.3771V20.5211C26.2463 20.0203 26.0483 19.5401 25.6957 19.186C25.3431 18.832 24.8649 18.6331 24.3663 18.6331C23.8677 18.6331 23.3895 18.832 23.037 19.186C22.6844 19.5401 22.4863 20.0203 22.4863 20.5211V31.3771C22.4863 31.8778 22.6844 32.358 23.037 32.7121C23.3895 33.0661 23.8677 33.2651 24.3663 33.2651C24.8649 33.2651 25.3431 33.0661 25.6957 32.7121C26.0483 32.358 26.2463 31.8778 26.2463 31.3771Z" fill="#0066FF"/>
<path d="M16.6487 31.377V26.0198C16.6487 25.5191 16.4506 25.0389 16.098 24.6848C15.7455 24.3308 15.2673 24.1318 14.7687 24.1318C14.2701 24.1318 13.7919 24.3308 13.4393 24.6848C13.0867 25.0389 12.8887 25.5191 12.8887 26.0198V31.377C12.8887 31.8778 13.0867 32.358 13.4393 32.712C13.7919 33.0661 14.2701 33.265 14.7687 33.265C15.2673 33.265 15.7455 33.0661 16.098 32.712C16.4506 32.358 16.6487 31.8778 16.6487 31.377Z" fill="#0066FF"/>
<path d="M7.05297 31.3771V24.9484C7.05297 24.4477 6.8549 23.9675 6.50233 23.6134C6.14976 23.2593 5.67158 23.0604 5.17297 23.0604C4.67436 23.0604 4.19618 23.2593 3.84361 23.6134C3.49104 23.9675 3.29297 24.4477 3.29297 24.9484V31.3771C3.29297 31.8778 3.49104 32.358 3.84361 32.7121C4.19618 33.0661 4.67436 33.2651 5.17297 33.2651C5.67158 33.2651 6.14976 33.0661 6.50233 32.7121C6.8549 32.358 7.05297 31.8778 7.05297 31.3771Z" fill="#0066FF"/>
</svg>
