<svg width="36" height="33" viewBox="0 0 36 33" fill="none" xmlns="http://www.w3.org/2000/svg">
<path d="M35.3937 12.5674L29.4347 6.50739C29.1987 6.26739 28.9037 6.14739 28.6087 6.14739C28.3137 6.14739 28.0187 6.26739 27.7827 6.50739L27.4877 6.74739V1.52739C27.4877 0.867393 26.9567 0.327393 26.3077 0.327393H1.52766C0.878656 0.327393 0.347656 0.867393 0.347656 1.52739V31.5274C0.347656 32.1874 0.878656 32.7274 1.52766 32.7274H26.3077C26.9567 32.7274 27.4877 32.1874 27.4877 31.5274V22.3474L35.3937 14.3074C35.8657 13.8274 35.8657 13.0474 35.3937 12.5674ZM25.1277 30.3274H2.70766V2.72739H25.1277V9.20739L15.9237 18.5074C15.6877 18.7474 15.5697 19.1074 15.5697 19.4074L15.8647 25.1674C15.9237 25.7674 16.3957 26.2474 16.9857 26.3074L22.6497 26.6074H22.7087C23.0037 26.6074 23.2987 26.4874 23.5347 26.2474L25.0687 24.6874V30.3274H25.1277ZM22.2957 24.2074L18.1657 23.9674L17.9297 19.7674L28.5497 8.96739L32.8567 13.3474L22.2957 24.2074ZM20.2307 10.5274H7.60466C6.95566 10.5274 6.42466 9.98739 6.42466 9.32739C6.42466 8.66739 6.95566 8.12739 7.60466 8.12739H20.2307C20.8797 8.12739 21.4107 8.66739 21.4107 9.32739C21.4107 9.98739 20.8797 10.5274 20.2307 10.5274Z" fill="#0066FF"/>
</svg>
