<svg width="25" height="24" viewBox="0 0 25 24" fill="none" xmlns="http://www.w3.org/2000/svg">
<path d="M6.54165 10C6.31865 10 6.10465 10.034 5.89165 10.065C5.96065 9.83303 6.03165 9.59703 6.14565 9.38503C6.25965 9.07703 6.43765 8.81003 6.61465 8.54103C6.76265 8.25003 7.02365 8.05303 7.21565 7.80403C7.41665 7.56203 7.69065 7.40103 7.90765 7.20003C8.12065 6.99003 8.39965 6.88503 8.62165 6.73703C8.85365 6.60403 9.05565 6.45703 9.27165 6.38703L9.81065 6.16503L10.2846 5.96803L9.79965 4.03003L9.20265 4.17403C9.01165 4.22203 8.77865 4.27803 8.51365 4.34503C8.24265 4.39503 7.95365 4.53203 7.63165 4.65703C7.31365 4.79903 6.94565 4.89503 6.60365 5.12303C6.25965 5.34103 5.86265 5.52303 5.51265 5.81503C5.17365 6.11603 4.76465 6.37703 4.46265 6.76003C4.13265 7.11803 3.80665 7.49403 3.55365 7.92203C3.26065 8.33003 3.06165 8.77803 2.85165 9.22103C2.66165 9.66403 2.50865 10.117 2.38365 10.557C2.14665 11.439 2.04065 12.277 1.99965 12.994C1.96565 13.712 1.98565 14.309 2.02765 14.741C2.04265 14.945 2.07065 15.143 2.09065 15.28L2.11565 15.448L2.14165 15.442C2.31951 16.2729 2.72895 17.0364 3.32261 17.6442C3.91627 18.2521 4.66989 18.6794 5.49629 18.8769C6.32269 19.0743 7.18809 19.0337 7.9924 18.7599C8.79671 18.486 9.50705 17.99 10.0413 17.3293C10.5755 16.6686 10.9117 15.8701 11.0111 15.0263C11.1104 14.1825 10.9689 13.3278 10.6028 12.5611C10.2367 11.7943 9.66099 11.1469 8.9423 10.6937C8.22362 10.2405 7.3913 9.99997 6.54165 10V10ZM17.5416 10C17.3186 10 17.1046 10.034 16.8916 10.065C16.9606 9.83303 17.0316 9.59703 17.1456 9.38503C17.2596 9.07703 17.4376 8.81003 17.6146 8.54103C17.7626 8.25003 18.0236 8.05303 18.2156 7.80403C18.4166 7.56203 18.6906 7.40103 18.9076 7.20003C19.1206 6.99003 19.3996 6.88503 19.6216 6.73703C19.8536 6.60403 20.0556 6.45703 20.2716 6.38703L20.8106 6.16503L21.2846 5.96803L20.7996 4.03003L20.2026 4.17403C20.0116 4.22203 19.7786 4.27803 19.5136 4.34503C19.2426 4.39503 18.9536 4.53203 18.6316 4.65703C18.3146 4.80003 17.9456 4.89503 17.6036 5.12403C17.2596 5.34203 16.8626 5.52403 16.5126 5.81603C16.1736 6.11703 15.7646 6.37803 15.4626 6.76003C15.1326 7.11803 14.8066 7.49403 14.5536 7.92203C14.2606 8.33003 14.0616 8.77803 13.8516 9.22103C13.6616 9.66403 13.5086 10.117 13.3836 10.557C13.1466 11.439 13.0406 12.277 12.9996 12.994C12.9656 13.712 12.9856 14.309 13.0276 14.741C13.0426 14.945 13.0706 15.143 13.0906 15.28L13.1156 15.448L13.1416 15.442C13.3195 16.2729 13.729 17.0364 14.3226 17.6442C14.9163 18.2521 15.6699 18.6794 16.4963 18.8769C17.3227 19.0743 18.1881 19.0337 18.9924 18.7599C19.7967 18.486 20.5071 17.99 21.0413 17.3293C21.5755 16.6686 21.9117 15.8701 22.0111 15.0263C22.1104 14.1825 21.9689 13.3278 21.6028 12.5611C21.2367 11.7943 20.661 11.1469 19.9423 10.6937C19.2236 10.2405 18.3913 9.99997 17.5416 10V10Z" fill="black" fill-opacity="0.88"/>
</svg>
