<svg width="51" height="46" viewBox="0 0 51 46" fill="none" xmlns="http://www.w3.org/2000/svg">
<path d="M49.9748 7.59809C49.6568 7.18209 49.1798 6.97411 48.6498 6.97411H12.5038L11.2848 1.51411C11.1258 0.734111 10.4368 0.214111 9.64185 0.214111H1.74483C0.790835 0.214111 0.0488281 0.942086 0.0488281 1.87809C0.0488281 2.81409 0.790835 3.54209 1.74483 3.54209H8.31685L15.2068 34.4301C15.3658 35.2101 16.0548 35.7301 16.8498 35.7301H43.6148C44.5688 35.7301 45.3108 35.0021 45.3108 34.0661C45.3108 33.1301 44.5688 32.4021 43.6148 32.4021H18.2279L17.3798 28.6061H44.4629C45.2579 28.6061 45.9468 28.0861 46.1058 27.3061L50.3458 9.00209C50.3988 8.53409 50.2928 8.01409 49.9748 7.59809Z" fill="#6B91F4"/>
<path d="M40.1159 45.558C42.3405 45.558 44.1439 43.7887 44.1439 41.606C44.1439 39.4234 42.3405 37.6541 40.1159 37.6541C37.8913 37.6541 36.0879 39.4234 36.0879 41.606C36.0879 43.7887 37.8913 45.558 40.1159 45.558Z" fill="#6B91F4"/>
<path d="M20.4538 45.558C22.6784 45.558 24.4818 43.7887 24.4818 41.606C24.4818 39.4234 22.6784 37.6541 20.4538 37.6541C18.2292 37.6541 16.4258 39.4234 16.4258 41.606C16.4258 43.7887 18.2292 45.558 20.4538 45.558Z" fill="#6B91F4"/>
</svg>
