<svg width="33" height="39" viewBox="0 0 33 39" fill="none" xmlns="http://www.w3.org/2000/svg">
<path d="M0.649906 9.95965V9.78685C0.649906 8.87965 1.42391 8.10205 2.32691 8.10205C3.22991 8.10205 4.00391 8.87965 4.00391 9.78685V9.95965H0.649906Z" fill="#0066FF"/>
<path d="M0.649906 11.0829H4.00391V33.8493H0.649906V11.0829Z" fill="#0066FF"/>
<path d="M2.32691 38.7308L4.00391 34.9724H0.649906L2.32691 38.7308Z" fill="#0066FF"/>
<path d="M8.51936 0.153198H30.1054C31.6534 0.153198 32.9434 1.4492 32.9434 3.0044V36.1388C32.9434 37.694 31.6534 38.99 30.1054 38.99H8.51936C6.97136 38.99 5.68136 37.694 5.68136 36.1388V3.0044C5.68136 1.4492 6.97136 0.153198 8.51936 0.153198ZM9.98136 34.5404H28.6864C29.0304 34.5404 29.2884 34.2812 29.2884 33.9356C29.2884 33.59 29.0304 33.3308 28.6864 33.3308H9.93836C9.59436 33.3308 9.33636 33.59 9.33636 33.9356C9.33636 34.238 9.63736 34.5404 9.98136 34.5404ZM9.98136 31.3436H28.6864C29.0304 31.3436 29.2884 31.0844 29.2884 30.7388C29.2884 30.3932 29.0304 30.134 28.6864 30.134H9.93836C9.59436 30.134 9.33636 30.3932 9.33636 30.7388C9.33636 31.0844 9.63736 31.3436 9.98136 31.3436ZM9.98136 28.1468H28.6864C29.0304 28.1468 29.2884 27.8876 29.2884 27.542C29.2884 27.1964 29.0304 26.9372 28.6864 26.9372H9.93836C9.59436 26.9372 9.33636 27.1964 9.33636 27.542C9.33636 27.8876 9.63736 28.1468 9.98136 28.1468ZM9.98136 24.9932H28.6864C29.0304 24.9932 29.2884 24.734 29.2884 24.3884C29.2884 24.0428 29.0304 23.7836 28.6864 23.7836H9.93836C9.59436 23.7836 9.33636 24.0428 9.33636 24.3884C9.33636 24.6908 9.63736 24.9932 9.98136 24.9932ZM9.98136 21.7964H28.6864C29.0304 21.7964 29.2884 21.5372 29.2884 21.1916C29.2884 20.846 29.0304 20.5868 28.6864 20.5868H9.93836C9.59436 20.5868 9.33636 20.846 9.33636 21.1916C9.33636 21.5372 9.63736 21.7964 9.98136 21.7964ZM9.98136 18.5996H28.6864C29.0304 18.5996 29.2884 18.3404 29.2884 17.9948C29.2884 17.6492 29.0304 17.39 28.6864 17.39H9.93836C9.59436 17.39 9.33636 17.6492 9.33636 17.9948C9.33636 18.3404 9.63736 18.5996 9.98136 18.5996ZM9.98136 15.446H28.6864C29.0304 15.446 29.2884 15.1868 29.2884 14.8412C29.2884 14.4956 29.0304 14.2364 28.6864 14.2364H9.93836C9.59436 14.2364 9.33636 14.4956 9.33636 14.8412C9.33636 15.1868 9.63736 15.446 9.98136 15.446ZM9.98136 12.2492H28.6864C29.0304 12.2492 29.2884 11.99 29.2884 11.6444C29.2884 11.2988 29.0304 11.0396 28.6864 11.0396H9.93836C9.59436 11.0396 9.33636 11.2988 9.33636 11.6444C9.33636 11.99 9.63736 12.2492 9.98136 12.2492ZM9.98136 9.0524H28.6864C29.0304 9.0524 29.2884 8.7932 29.2884 8.4476C29.2884 8.102 29.0304 7.8428 28.6864 7.8428H9.93836C9.59436 7.8428 9.33636 8.102 9.33636 8.4476C9.33636 8.7932 9.63736 9.0524 9.98136 9.0524ZM9.98136 5.8988H28.6864C29.0304 5.8988 29.2884 5.6396 29.2884 5.294C29.2884 4.9484 29.0304 4.6892 28.6864 4.6892H9.93836C9.59436 4.6892 9.33636 4.9484 9.33636 5.294C9.33636 5.5964 9.63736 5.8988 9.98136 5.8988Z" fill="#0066FF"/>
</svg>
