<?xml version="1.0" encoding="utf-8"?>
<!DOCTYPE svg PUBLIC "-//W3C//DTD SVG 1.1//EN" "http://www.w3.org/Graphics/SVG/1.1/DTD/svg11.dtd">
<svg version="1.1" xmlns="http://www.w3.org/2000/svg" xmlns:xlink="http://www.w3.org/1999/xlink" x="0px" y="0px" viewBox="0 0 1000 1000" enable-background="new 0 0 1000 1000" xml:space="preserve">
<metadata> Svg Vector Icons : http://www.onlinewebfonts.com/icon </metadata>
<g><g><g id="Remove_1_"><g><path d="M608.4,500l359.1-361.9c30-30.2,30-79.1,0-109.2c-29.9-30.2-78.5-30.2-108.4,0L500,390.8L140.8,28.9c-29.9-30.2-78.5-30.2-108.4,0c-30,30.2-30,79.1,0,109.2L391.6,500L32.5,861.9c-30,30.2-30,79.1,0,109.2c14.9,15.1,34.6,22.6,54.2,22.6c19.6,0,39.2-7.5,54.2-22.6L500,609.2l359.2,361.9c14.9,15.1,34.5,22.6,54.2,22.6c19.6,0,39.2-7.5,54.1-22.6c30-30.2,30-79.1,0-109.2L608.4,500z"/></g></g></g><g></g><g></g><g></g><g></g><g></g><g></g><g></g><g></g><g></g><g></g><g></g><g></g><g></g><g></g><g></g></g>
</svg>