<svg width="39" height="40" viewBox="0 0 39 40" fill="none" xmlns="http://www.w3.org/2000/svg">
<path fill-rule="evenodd" clip-rule="evenodd" d="M31.6786 18.4663C32.5455 18.7895 33.3402 19.2669 34.0323 19.8664L35.3316 19.3545C35.838 19.155 36.4081 19.2425 36.6795 19.7259C37.161 20.5837 37.642 21.4409 38.1235 22.2987C38.3949 22.7821 38.1837 23.3339 37.7623 23.6851L36.683 24.5852C36.7611 25.0394 36.8016 25.5067 36.8016 25.9841C36.8016 26.4609 36.7611 26.9282 36.683 27.3824L37.7623 28.2831C38.1837 28.6343 38.3949 29.1855 38.1235 29.6689C37.642 30.5267 37.161 31.3845 36.6795 32.2423C36.4081 32.725 35.838 32.8131 35.3316 32.6137L34.0323 32.1018C33.3402 32.7006 32.5455 33.1781 31.6786 33.5013L31.4604 34.9121C31.3753 35.4633 31.0165 35.9271 30.4736 35.9271C29.5112 35.9271 28.5482 35.9271 27.5851 35.9271C27.0428 35.9271 26.684 35.4633 26.5989 34.9121L26.3802 33.5013C25.5138 33.1781 24.7186 32.7006 24.027 32.1018L22.7277 32.6137C22.2213 32.8131 21.6513 32.725 21.3798 32.2423C20.8983 31.3845 20.4174 30.5267 19.9359 29.6689C19.6644 29.1855 19.8757 28.6343 20.297 28.2831L21.3763 27.3824C21.2982 26.9282 21.2571 26.4609 21.2571 25.9841C21.2571 25.5067 21.2982 25.0394 21.3763 24.5852L20.297 23.6851C19.8757 23.3339 19.6644 22.7821 19.9359 22.2987C20.4174 21.4409 20.8983 20.5837 21.3798 19.7259C21.6513 19.2425 22.2213 19.155 22.7277 19.3545L24.027 19.8664C24.7192 19.2669 25.5138 18.7895 26.3808 18.4663L26.5989 17.0555C26.684 16.5043 27.0428 16.0405 27.5851 16.0405C28.5482 16.0405 29.5112 16.0405 30.4736 16.0405C31.0165 16.0405 31.3753 16.5043 31.4604 17.0555L31.6786 18.4663ZM29.0297 22.9761C30.6444 22.9761 31.9535 24.3227 31.9535 25.9841C31.9535 27.6449 30.6444 28.9914 29.0297 28.9914C27.4144 28.9914 26.1053 27.6449 26.1053 25.9841C26.1053 24.3227 27.4144 22.9761 29.0297 22.9761Z" fill="#0066FF"/>
<path fill-rule="evenodd" clip-rule="evenodd" d="M12.7938 21.9016C13.6608 22.2248 14.456 22.7023 15.1476 23.3017L16.4469 22.7898C16.9533 22.5904 17.5233 22.6779 17.7948 23.1612C18.2763 24.019 18.7572 24.8768 19.2387 25.7346C19.5102 26.2174 19.2989 26.7692 18.8776 27.1204L17.7982 28.0211C17.8764 28.4747 17.9174 28.942 17.9174 29.4194C17.9174 29.8962 17.8764 30.3635 17.7982 30.8177L18.8776 31.7184C19.2989 32.0696 19.5102 32.6214 19.2387 33.1042C18.7572 33.962 18.2763 34.8198 17.7948 35.6776C17.5233 36.161 16.9533 36.2485 16.4469 36.049L15.1476 35.5371C14.456 36.136 13.6608 36.614 12.7944 36.9372L12.5756 38.348C12.4906 38.8987 12.1317 39.3624 11.5895 39.3624C10.6264 39.3624 9.66339 39.3624 8.70094 39.3624C8.15808 39.3624 7.79925 38.8987 7.71418 38.348L7.49599 36.9372C6.62903 36.6134 5.83442 36.1365 5.14224 35.5371L3.84295 36.049C3.33655 36.2485 2.76649 36.161 2.49506 35.6776C2.01354 34.8198 1.53261 33.962 1.05109 33.1042C0.779658 32.6214 0.9909 32.0696 1.41223 31.7184L2.49159 30.8177C2.41346 30.3635 2.37294 29.8962 2.37294 29.4194C2.37294 28.942 2.41346 28.4753 2.49159 28.0211L1.41223 27.1204C0.9909 26.7692 0.779658 26.2174 1.05109 25.7346C1.53261 24.8768 2.01412 24.019 2.49506 23.1612C2.76649 22.6779 3.33655 22.5904 3.84295 22.7898L5.14224 23.3017C5.83442 22.7023 6.62903 22.2248 7.49599 21.9016L7.71418 20.4908C7.79925 19.9402 8.15808 19.4764 8.70094 19.4764C9.66339 19.4764 10.6264 19.4764 11.5895 19.4764C12.1317 19.4764 12.4906 19.9402 12.5756 20.4908L12.7938 21.9016ZM10.1449 26.4121C11.7602 26.4121 13.0693 27.7586 13.0693 29.4194C13.0693 31.0802 11.7602 32.4268 10.1449 32.4268C8.53021 32.4268 7.22109 31.0802 7.22109 29.4194C7.22109 27.7586 8.53021 26.4121 10.1449 26.4121Z" fill="#0066FF"/>
<path fill-rule="evenodd" clip-rule="evenodd" d="M19.0891 3.27051C19.956 3.59375 20.7506 4.07176 21.4428 4.67061L22.7421 4.15867C23.2485 3.95925 23.8186 4.04675 24.0894 4.53012C24.5709 5.38792 25.0525 6.24572 25.534 7.10352C25.8054 7.58629 25.5942 8.13812 25.1728 8.48933L24.0935 9.38999C24.1716 9.84419 24.2121 10.3115 24.2121 10.7883C24.2121 11.2657 24.1716 11.7324 24.0935 12.1866L25.1728 13.0873C25.5942 13.4385 25.8054 13.9903 25.534 14.4731C25.0525 15.3309 24.5709 16.1887 24.0894 17.0465C23.8186 17.5299 23.2485 17.6174 22.7421 17.4179L21.4428 16.906C20.7506 17.5054 19.956 17.9829 19.0891 18.3061L18.8709 19.7169C18.7858 20.2675 18.427 20.7313 17.8841 20.7313C16.9211 20.7313 15.9586 20.7313 14.9956 20.7313C14.4533 20.7313 14.0945 20.2675 14.0094 19.7169L13.7907 18.3061C12.9243 17.9823 12.1291 17.5054 11.4375 16.906L10.1382 17.4179C9.63122 17.6174 9.06173 17.5299 8.7903 17.0465C8.30879 16.1887 7.82727 15.3309 7.34576 14.4731C7.0749 13.9903 7.28557 13.4385 7.70689 13.0873L8.78625 12.1866C8.7087 11.733 8.66761 11.2657 8.66761 10.7883C8.66761 10.3115 8.7087 9.84419 8.78625 9.38999L7.70689 8.48933C7.28557 8.13812 7.0749 7.58629 7.34576 7.10352C7.82727 6.24572 8.30879 5.38792 8.7903 4.53012C9.06173 4.04675 9.63122 3.95925 10.1382 4.15867L11.4375 4.67061C12.1291 4.07116 12.9243 3.59375 13.7907 3.27051L14.0094 1.85969C14.0945 1.30906 14.4533 0.845337 14.9956 0.845337C15.9586 0.845337 16.9217 0.845337 17.8841 0.845337C18.427 0.845337 18.7858 1.30906 18.8709 1.85969L19.0891 3.27051ZM16.4402 7.78095C18.0548 7.78095 19.364 9.12747 19.364 10.7883C19.364 12.4491 18.0548 13.7957 16.4402 13.7957C14.8249 13.7957 13.5158 12.4491 13.5158 10.7883C13.5158 9.12747 14.8249 7.78095 16.4402 7.78095Z" fill="#0066FF"/>
</svg>
