<svg width="40" height="41" viewBox="0 0 40 41" fill="none" xmlns="http://www.w3.org/2000/svg">
<path d="M39.1838 25.4361L36.5036 23.732C36.6825 22.7539 36.7808 21.7468 36.7808 20.7172C36.7808 19.6876 36.6831 18.6817 36.5043 17.7036L39.1838 15.9995C39.7858 15.616 40.0451 14.7356 39.7567 14.0433L38.7119 11.5214C38.4249 10.8278 37.619 10.3875 36.9227 10.5426L33.824 11.2317C32.6716 9.56541 31.2274 8.12121 29.5611 6.96876L30.2508 3.86941C30.4052 3.17311 29.9657 2.36725 29.2727 2.08082L26.7502 1.03538C26.0565 0.746301 25.1754 1.00502 24.7926 1.60826L23.0885 4.28785C22.0944 4.10457 21.0858 4.01179 20.0749 4.01065C19.0447 4.01065 18.0382 4.10899 17.0607 4.28719L15.3566 1.6076C14.9732 1.00436 14.0934 0.745641 13.3997 1.0334L10.8785 2.07884C10.1849 2.36527 9.744 3.17179 9.89976 3.86875L10.5888 6.96744C8.9226 8.11949 7.47859 9.5635 6.32653 11.2297L3.22719 10.5407C2.53089 10.3849 1.72503 10.8258 1.43793 11.5181L0.393158 14.04C0.105399 14.7336 0.364118 15.6147 0.966035 15.9975L3.64628 17.7016C3.46359 18.696 3.37103 19.7048 3.36975 20.7158C3.36975 21.7461 3.46809 22.7519 3.64628 23.7294L0.966035 25.4335C0.363458 25.817 0.105399 26.6974 0.393158 27.3917L1.43793 29.9136C1.72569 30.6059 2.53089 31.0474 3.22719 30.891L6.32653 30.2013C7.47893 31.8674 8.92288 33.3116 10.5888 34.4642L9.8991 37.5636C9.74334 38.2599 10.1849 39.0657 10.8772 39.3522L13.3991 40.3976C14.0934 40.6841 14.9732 40.4267 15.3566 39.8241L17.0607 37.1445C18.0389 37.3234 19.0453 37.421 20.0749 37.421C21.1045 37.421 22.1097 37.3234 23.0885 37.1445L24.7926 39.8241C25.1754 40.4267 26.0565 40.6841 26.7495 40.3976L29.2707 39.3535C29.9657 39.0657 30.4052 38.2599 30.2495 37.5636L29.5604 34.4642C31.2268 33.312 32.6711 31.8677 33.8233 30.2013L36.922 30.891C37.6183 31.0468 38.4242 30.6052 38.7113 29.9136L39.7561 27.3917C40.0451 26.6987 39.7858 25.8183 39.1838 25.4361V25.4361ZM15.8133 32.9812L14.4498 32.4169C11.7954 31.1366 9.65374 28.9939 8.37451 26.339L7.81219 24.9821C7.33113 23.6115 7.08414 22.1697 7.08157 20.7172C7.08157 19.217 7.34887 17.7828 7.81615 16.4417L8.37187 15.0999C9.65113 12.4434 11.7936 10.2993 14.4491 9.01805L15.814 8.45243C17.1831 7.97213 18.6233 7.72559 20.0743 7.72313C21.5659 7.72313 22.9935 7.98713 24.328 8.45045L25.706 9.02135C28.3533 10.2997 30.4902 12.436 31.7694 15.0828L32.343 16.4688C32.805 17.802 33.0683 19.2269 33.0683 20.7172C33.0683 22.2074 32.8056 23.633 32.343 24.9662L31.7694 26.3522C30.4904 28.9991 28.3534 31.1354 25.706 32.4136L24.328 32.9845C22.9607 33.4631 21.5229 33.7089 20.0743 33.7118C18.6231 33.7079 17.1829 33.4609 15.8133 32.9812" fill="black" fill-opacity="0.19"/>
<path d="M29.9747 20.7166C29.9747 15.2492 25.5428 10.8167 20.0748 10.8167C14.608 10.8167 10.1748 15.2492 10.1748 20.7166C10.1748 26.184 14.608 30.6166 20.0748 30.6166C25.5428 30.6166 29.9747 26.184 29.9747 20.7166ZM15.1248 20.7166C15.1248 19.4038 15.6463 18.1447 16.5746 17.2164C17.5029 16.2881 18.7619 15.7666 20.0748 15.7666C21.3876 15.7666 22.6466 16.2881 23.5749 17.2164C24.5032 18.1447 25.0247 19.4038 25.0247 20.7166C25.0247 22.0294 24.5032 23.2885 23.5749 24.2168C22.6466 25.1451 21.3876 25.6666 20.0748 25.6666C18.7619 25.6666 17.5029 25.1451 16.5746 24.2168C15.6463 23.2885 15.1248 22.0294 15.1248 20.7166Z" fill="black" fill-opacity="0.19"/>
</svg>
