<svg width="45" height="41" viewBox="0 0 45 41" fill="none" xmlns="http://www.w3.org/2000/svg">
<path d="M44.4076 20.8022L23.4407 0.516705C23.255 0.336885 23.0083 0.236572 22.7518 0.236572C22.4952 0.236572 22.2485 0.336885 22.0628 0.516705L1.0959 20.8022C0.9274 20.9925 0.835978 21.2405 0.839969 21.4965C0.843961 21.7524 0.943071 21.9974 1.11742 22.1822C1.29177 22.367 1.52845 22.478 1.78001 22.493C2.03156 22.5079 2.27937 22.4257 2.47372 22.2627L4.78009 20.0313V39.7894C4.78009 40.0584 4.88528 40.3164 5.07252 40.5066C5.25976 40.6968 5.51372 40.8037 5.77851 40.8037H16.7612C17.026 40.8037 17.28 40.6968 17.4672 40.5066C17.6544 40.3164 17.7596 40.0584 17.7596 39.7894V28.6324C17.7596 27.2874 18.2856 25.9975 19.2218 25.0464C20.158 24.0953 21.4278 23.561 22.7518 23.561C24.0758 23.561 25.3455 24.0953 26.2817 25.0464C27.2179 25.9975 27.7439 27.2874 27.7439 28.6324V39.7894C27.7439 40.0584 27.8491 40.3164 28.0363 40.5066C28.2236 40.6968 28.4775 40.8037 28.7423 40.8037H39.725C39.9898 40.8037 40.2438 40.6968 40.431 40.5066C40.6182 40.3164 40.7234 40.0584 40.7234 39.7894V20.0313L43.0298 22.2627C43.2169 22.4517 43.4699 22.5577 43.7337 22.5577C43.9975 22.5577 44.2505 22.4517 44.4376 22.2627C44.5323 22.1661 44.6069 22.051 44.6568 21.9245C44.7067 21.7979 44.731 21.6623 44.7282 21.526C44.7254 21.3897 44.6956 21.2553 44.6405 21.1309C44.5854 21.0065 44.5062 20.8947 44.4076 20.8022Z" fill="#6B91F4"/>
<path d="M15.6833 3.8941C15.6069 3.71077 15.479 3.55435 15.3157 3.44433C15.1523 3.33431 14.9607 3.27555 14.7648 3.27539H7.77577C7.51097 3.27539 7.25702 3.38225 7.06978 3.57246C6.88253 3.76268 6.77734 4.02066 6.77734 4.28966V12.5053L15.6833 3.8941Z" fill="#6B91F4"/>
</svg>
