<svg width="106" height="106" viewBox="0 0 106 106" fill="none" xmlns="http://www.w3.org/2000/svg">
<path d="M0.825195 51.2159C0.825195 23.3061 23.4506 0.680664 51.3605 0.680664V0.680664C81.131 0.680664 105.265 24.8144 105.265 54.5849V105.119H53.0445C24.2046 105.119 0.825195 81.7399 0.825195 52.9V51.2159Z" fill="#14D182"/>
<path d="M44.6996 17.4273H36.8169C35.7719 17.4285 34.7701 17.8364 34.0312 18.5616C33.2923 19.2867 32.8767 20.2699 32.8755 21.2954V27.7421H35.5031V21.2954C35.5035 20.9535 35.642 20.6258 35.8883 20.3841C36.1346 20.1424 36.4685 20.0064 36.8169 20.006H44.6996V17.4273Z" fill="white"/>
<path d="M94.6237 17.4273H57.8375V20.006H89.3686C89.7169 20.0064 90.0508 20.1424 90.2971 20.3841C90.5434 20.6258 90.682 20.9535 90.6824 21.2954V59.9757C90.682 60.3175 90.5434 60.6453 90.2971 60.887C90.0508 61.1287 89.7169 61.2647 89.3686 61.265H36.8169C36.4685 61.2647 36.1346 61.1287 35.8883 60.887C35.642 60.6453 35.5035 60.3175 35.5031 59.9757V58.6864H32.8755V59.9757C32.8767 61.0012 33.2923 61.9844 34.0312 62.7095C34.7701 63.4347 35.7719 63.8426 36.8169 63.8437H58.2182L61.1751 68.1C61.7519 68.9302 62.0871 69.8992 62.1445 70.9025C62.2019 71.9058 61.9794 72.9054 61.501 73.7939C61.0225 74.6823 60.3063 75.4258 59.4292 75.9445C58.5522 76.4631 57.5477 76.7372 56.5238 76.7372C56.1753 76.7372 55.8411 76.873 55.5948 77.1148C55.3484 77.3566 55.21 77.6846 55.21 78.0265C55.21 78.3685 55.3484 78.6964 55.5948 78.9382C55.8411 79.18 56.1753 79.3159 56.5238 79.3159H76.2306C77.7325 79.3159 79.2059 78.9139 80.4923 78.1532C81.7787 77.3925 82.8293 76.3019 83.531 74.9988C84.2328 73.6957 84.5591 72.2295 84.4749 70.7579C84.3907 69.2863 83.8991 67.8651 83.053 66.6473L81.1053 63.8437H94.6237C95.6687 63.8426 96.6705 63.4347 97.4094 62.7095C98.1483 61.9844 98.5639 61.0012 98.5651 59.9757V21.2954C98.5639 20.2699 98.1483 19.2867 97.4094 18.5616C96.6705 17.8364 95.6687 17.4285 94.6237 17.4273V17.4273ZM71.5025 63.8437L72.0609 64.8672C72.0808 64.9038 72.1026 64.9393 72.126 64.9738C72.2213 65.1141 72.276 65.2772 72.2843 65.4457C72.2926 65.6141 72.2541 65.7816 72.173 65.9303C72.0919 66.079 71.9713 66.2033 71.8239 66.2899C71.6764 66.3766 71.5078 66.4224 71.336 66.4224C70.8373 66.423 70.3461 66.3036 69.9054 66.0747C69.4646 65.8459 69.0877 65.5146 68.8075 65.1097L68.0363 63.8437H71.5025ZM80.882 68.1C81.4588 68.9302 81.794 69.8992 81.8514 70.9025C81.9088 71.9058 81.6863 72.9054 81.2079 73.7939C80.7294 74.6823 80.0131 75.4258 79.1361 75.9445C78.2591 76.4631 77.2546 76.7372 76.2306 76.7372H62.5798C63.0686 76.2122 63.4868 75.628 63.8242 74.9987C63.9709 74.7259 64.1024 74.4454 64.2181 74.1585H67.0341V71.5798H64.792C64.8733 69.8246 64.3653 68.0918 63.3461 66.6473L61.3984 63.8437H64.9751L66.5703 66.4626C66.5814 66.4807 66.5927 66.4986 66.6048 66.5162C67.1233 67.2813 67.8267 67.9086 68.6522 68.3421C69.4777 68.7757 70.3997 69.0021 71.336 69.0011C71.9532 69.0012 72.56 68.8445 73.0972 68.5463C73.6344 68.2481 74.0839 67.8185 74.4018 67.2993C74.7197 66.78 74.8952 66.1889 74.9113 65.5834C74.9274 64.9778 74.7836 64.3785 74.4937 63.8437H77.925L80.882 68.1ZM95.9375 59.9757C95.9371 60.3175 95.7986 60.6453 95.5523 60.887C95.306 61.1287 94.9721 61.2647 94.6237 61.265H93.0839C93.2337 60.8511 93.3101 60.415 93.3099 59.9757V21.2954C93.3101 20.8561 93.2337 20.42 93.0839 20.006H94.6237C94.9721 20.0064 95.306 20.1424 95.5523 20.3841C95.7986 20.6258 95.9371 20.9535 95.9375 21.2954V59.9757Z" fill="white"/>
<path d="M84.1136 56.1077H60.4653V58.6864H84.1136C85.1586 58.6852 86.1604 58.2773 86.8993 57.5522C87.6381 56.8271 88.0538 55.8439 88.055 54.8184V26.4528C88.0538 25.4273 87.6381 24.4441 86.8993 23.719C86.1604 22.9939 85.1586 22.586 84.1136 22.5848H60.4653V25.1635H84.1136C84.4619 25.1639 84.7959 25.2998 85.0422 25.5415C85.2884 25.7833 85.427 26.111 85.4274 26.4528V54.8184C85.427 55.1602 85.2884 55.4879 85.0422 55.7297C84.7959 55.9714 84.4619 56.1073 84.1136 56.1077V56.1077Z" fill="white"/>
<path d="M38.1309 27.7422H40.7584V26.4528C40.7588 26.111 40.8974 25.7833 41.1437 25.5415C41.39 25.2998 41.7239 25.1639 42.0722 25.1635V22.5848C41.0273 22.586 40.0255 22.9939 39.2866 23.719C38.5477 24.4441 38.1321 25.4273 38.1309 26.4528V27.7422Z" fill="white"/>
<path d="M38.1309 54.8184C38.132 55.8439 38.5477 56.827 39.2866 57.5522C40.0255 58.2773 41.0273 58.6852 42.0722 58.6864V56.1077C41.7239 56.1073 41.39 55.9713 41.1437 55.7296C40.8974 55.4879 40.7588 55.1602 40.7584 54.8184H38.1309Z" fill="white"/>
<path d="M72.2897 71.5799H69.6621V74.1586H72.2897V71.5799Z" fill="white"/>
<path d="M77.5441 71.5799H74.9165V74.1586H77.5441V71.5799Z" fill="white"/>
<path d="M35.5033 54.8185V52.2398H39.4447C39.6235 52.2398 39.8004 52.2039 39.9645 52.1343C40.1286 52.0647 40.2764 51.9628 40.3989 51.8349L42.6573 53.3125C42.8731 53.4538 43.1267 53.5291 43.3861 53.5291H44.6999V54.8185C44.701 55.844 45.1167 56.8271 45.8556 57.5523C46.5945 58.2774 47.5963 58.6853 48.6412 58.6865H53.8964C54.9414 58.6853 55.9432 58.2774 56.6821 57.5523C57.4209 56.8271 57.8366 55.844 57.8378 54.8185V53.5291H60.4654C61.5103 53.5279 62.5121 53.1201 63.251 52.3949C63.9899 51.6698 64.4056 50.6866 64.4067 49.6611V34.1889C64.4056 33.1634 63.9899 32.1803 63.251 31.4551C62.5121 30.73 61.5103 30.3221 60.4654 30.3209H58.1447C58.0481 30.2151 57.9456 30.1145 57.8378 30.0196V26.4529C57.8367 25.6533 57.5836 24.8736 57.1132 24.2208C56.6428 23.568 55.978 23.074 55.2102 22.8066V13.9498L57.6171 10.4066C57.7353 10.2326 57.8087 10.0329 57.8307 9.82491C57.8528 9.61688 57.823 9.40671 57.7438 9.21253L55.1162 2.76581C55.0187 2.52655 54.8504 2.32146 54.6329 2.177C54.4155 2.03253 54.159 1.95532 53.8964 1.95532H48.6412C48.3787 1.95532 48.1221 2.03253 47.9047 2.177C47.6873 2.32146 47.5189 2.52655 47.4214 2.76581L44.7938 9.21253C44.7147 9.40671 44.6848 9.61688 44.7069 9.82491C44.729 10.0329 44.8023 10.2326 44.9205 10.4066L47.3274 13.9498V22.8066C46.5596 23.074 45.8949 23.568 45.4244 24.2208C44.954 24.8736 44.7009 25.6533 44.6999 26.4529V29.0316H43.3861C43.0376 29.0316 42.7034 29.1674 42.457 29.4092L40.0606 31.761C39.871 31.6619 39.6595 31.6101 39.4447 31.6102H35.5033C35.5033 31.2683 35.3649 30.9403 35.1185 30.6985C34.8721 30.4568 34.5379 30.3209 34.1895 30.3209H19.7378V32.8996H32.8757V53.5291H19.7378V56.1078H34.1895C34.5379 56.1078 34.8721 55.972 35.1185 55.7302C35.3649 55.4884 35.5033 55.1604 35.5033 54.8185V54.8185ZM55.2102 54.8185C55.2098 55.1603 55.0712 55.488 54.825 55.7297C54.5787 55.9714 54.2447 56.1074 53.8964 56.1078H48.6412C48.2929 56.1074 47.959 55.9714 47.7127 55.7297C47.4664 55.488 47.3278 55.1603 47.3274 54.8185V53.5291H55.2102V54.8185ZM60.4654 32.8996C60.8137 32.9 61.1476 33.036 61.3939 33.2777C61.6402 33.5194 61.7788 33.8471 61.7792 34.1889V49.6611C61.7788 50.0029 61.6402 50.3306 61.3939 50.5723C61.1476 50.8141 60.8137 50.95 60.4654 50.9504H48.6412V36.7676H55.2102C56.2551 36.7665 57.257 36.3586 57.9959 35.6334C58.7348 34.9083 59.1504 33.9251 59.1516 32.8996H60.4654ZM49.955 14.8488H52.5826V22.5848H49.955V14.8488ZM49.5307 4.53401H53.007L55.0476 9.54054L53.1933 12.2701H49.3443L47.4901 9.54054L49.5307 4.53401ZM47.3274 26.4529C47.3278 26.111 47.4664 25.7833 47.7127 25.5416C47.959 25.2999 48.2929 25.1639 48.6412 25.1635H53.8964C54.2447 25.1639 54.5787 25.2999 54.825 25.5416C55.0712 25.7833 55.2098 26.111 55.2102 26.4529V29.0316H47.3274V26.4529ZM43.9302 31.6102H55.2102C55.5586 31.6102 55.8928 31.7461 56.1392 31.9879C56.3856 32.2297 56.524 32.5576 56.524 32.8996C56.524 33.2415 56.3856 33.5695 56.1392 33.8113C55.8928 34.0531 55.5586 34.1889 55.2102 34.1889H47.3274C46.979 34.1889 46.6448 34.3248 46.3984 34.5666C46.1521 34.8084 46.0136 35.1363 46.0136 35.4783V50.9504H43.7838L40.7585 48.9711V34.723L43.9302 31.6102ZM38.1309 34.1889V49.6611H35.5033V34.1889H38.1309Z" fill="white"/>
</svg>
