<svg width="18" height="21" viewBox="0 0 18 21" fill="none" xmlns="http://www.w3.org/2000/svg">
<path d="M12.8755 2.88268V17.8827C12.8755 19.5527 14.0155 20.4927 15.2655 20.4927C16.4055 20.4927 17.6555 19.7027 17.6555 17.8827V2.99268C17.6555 1.45268 16.5155 0.492676 15.2655 0.492676C14.0155 0.492676 12.8755 1.55268 12.8755 2.88268V2.88268ZM6.62549 10.4927V17.8827C6.62549 19.5627 7.78549 20.4927 9.01549 20.4927C10.1555 20.4927 11.4055 19.7027 11.4055 17.8827V10.6027C11.4055 9.06268 10.2655 8.10268 9.01549 8.10268C7.76549 8.10268 6.62549 9.16268 6.62549 10.4927ZM2.76549 15.7227C4.08549 15.7227 5.15549 16.7927 5.15549 18.1027C5.15549 18.7365 4.90369 19.3444 4.45547 19.7927C4.00726 20.2409 3.39936 20.4927 2.76549 20.4927C2.13162 20.4927 1.52372 20.2409 1.0755 19.7927C0.627291 19.3444 0.375488 18.7365 0.375488 18.1027C0.375488 16.7927 1.44549 15.7227 2.76549 15.7227Z" fill="black" fill-opacity="0.77"/>
</svg>
