<svg width="25" height="19" viewBox="0 0 25 19" fill="none" xmlns="http://www.w3.org/2000/svg">
<path d="M4.69897 2.01074V12.0107H9.69897V8.01074C9.69897 7.48031 9.90969 6.9716 10.2848 6.59653C10.6598 6.22146 11.1685 6.01074 11.699 6.01074H16.699C17.2294 6.01074 17.7381 6.22146 18.1132 6.59653C18.4883 6.9716 18.699 7.48031 18.699 8.01074V12.0107H20.699V2.01074H4.69897ZM0.698975 16.0107V14.0107H4.69897C4.16854 14.0107 3.65983 13.8 3.28476 13.425C2.90969 13.0499 2.69897 12.5412 2.69897 12.0107V2.01074C2.69897 1.48031 2.90969 0.971601 3.28476 0.596529C3.65983 0.221456 4.16854 0.0107422 4.69897 0.0107422H20.699C21.2294 0.0107422 21.7381 0.221456 22.1132 0.596529C22.4883 0.971601 22.699 1.48031 22.699 2.01074V12.0107C22.699 12.5412 22.4883 13.0499 22.1132 13.425C21.7381 13.8 21.2294 14.0107 20.699 14.0107H24.699V16.0107H18.699C18.699 16.5412 18.4883 17.0499 18.1132 17.425C17.7381 17.8 17.2294 18.0107 16.699 18.0107H11.699C11.1685 18.0107 10.6598 17.8 10.2848 17.425C9.90969 17.0499 9.69897 16.5412 9.69897 16.0107H0.698975ZM12.199 16.0107C12.0664 16.0107 11.9392 16.0634 11.8454 16.1572C11.7517 16.251 11.699 16.3781 11.699 16.5107C11.699 16.6434 11.7517 16.7705 11.8454 16.8643C11.9392 16.9581 12.0664 17.0107 12.199 17.0107C12.3316 17.0107 12.4588 16.9581 12.5525 16.8643C12.6463 16.7705 12.699 16.6434 12.699 16.5107C12.699 16.3781 12.6463 16.251 12.5525 16.1572C12.4588 16.0634 12.3316 16.0107 12.199 16.0107ZM16.199 16.0107C16.0664 16.0107 15.9392 16.0634 15.8454 16.1572C15.7517 16.251 15.699 16.3781 15.699 16.5107C15.699 16.6434 15.7517 16.7705 15.8454 16.8643C15.9392 16.9581 16.0664 17.0107 16.199 17.0107C16.3316 17.0107 16.4588 16.9581 16.5525 16.8643C16.6463 16.7705 16.699 16.6434 16.699 16.5107C16.699 16.3781 16.6463 16.251 16.5525 16.1572C16.4588 16.0634 16.3316 16.0107 16.199 16.0107ZM13.699 16.0107V17.0107H14.699V16.0107H13.699ZM11.699 8.01074V15.0107H16.699V8.01074H11.699Z" fill="black" fill-opacity="0.77"/>
</svg>
