<svg width="105" height="106" viewBox="0 0 105 106" fill="none" xmlns="http://www.w3.org/2000/svg">
<path d="M0.19873 51.2159C0.19873 23.3061 22.8241 0.680664 50.734 0.680664V0.680664C80.5045 0.680664 104.638 24.8144 104.638 54.5849V105.119H52.418C23.5781 105.119 0.19873 81.7399 0.19873 52.9V51.2159Z" fill="#14D182"/>
<path d="M59.401 11.8308C44.9966 11.8308 33.2734 23.554 33.2734 37.9584C33.2734 52.3627 44.9966 64.0859 59.401 64.0859C65.8066 64.0859 71.6568 61.7356 76.2072 57.894L94.4606 76.1481L97.5907 73.018L79.3366 54.7639C83.1783 50.2141 85.5285 44.3633 85.5285 37.9577C85.5285 23.554 73.8047 11.8308 59.401 11.8308ZM59.401 16.1856C64.6388 16.1856 69.4619 18.018 73.2131 21.0845L68.1099 26.1876L67.2256 27.072L42.5271 51.7705C39.4606 48.0193 37.6283 43.1962 37.6283 37.9584C37.6283 25.9076 47.3502 16.1856 59.401 16.1856ZM57.2236 18.3624V22.7172C52.4205 22.7172 48.5146 26.6231 48.5146 31.4261C48.5146 34.4812 50.077 37.1517 52.4607 38.7067L55.7269 35.5089C54.074 34.8906 52.8694 33.2927 52.8694 31.4268C52.8694 29.025 54.8224 27.072 57.2242 27.072H64.1645L68.1106 23.1259V22.7178H61.5791V18.363H57.2236V18.3624ZM76.2749 24.1462C79.3413 27.8974 81.1737 32.7205 81.1737 37.9584C81.1737 50.0091 71.4518 59.7311 59.401 59.7311C54.1631 59.7311 49.34 57.8987 45.5888 54.8322L50.692 49.7291L51.5764 48.8447L76.2749 24.1462ZM66.3412 37.21L63.0751 40.4078C64.7279 41.0261 65.9325 42.624 65.9325 44.4899C65.9325 46.8917 63.9796 48.8447 61.5777 48.8447H54.6382L50.692 52.7908V53.1989H57.2236V57.5537H61.5784V53.1989C66.3814 53.1989 70.2873 49.2929 70.2873 44.4899C70.2873 41.4355 68.725 38.7643 66.3412 37.21Z" fill="white"/>
</svg>
