<svg width="44" height="44" viewBox="0 0 44 44" fill="none" xmlns="http://www.w3.org/2000/svg">
<path d="M12.8335 18.6017H31.1668V25.7684H12.8335V18.6017Z" fill="black" fill-opacity="0.19"/>
<path d="M21.9998 4.26843C11.8908 4.26843 3.6665 12.3058 3.6665 22.1851C3.6665 32.0644 11.8908 40.1018 21.9998 40.1018C32.1088 40.1018 40.3332 32.0644 40.3332 22.1851C40.3332 12.3058 32.1088 4.26843 21.9998 4.26843ZM21.9998 36.5184C13.913 36.5184 7.33317 30.0881 7.33317 22.1851C7.33317 14.2821 13.913 7.85177 21.9998 7.85177C30.0867 7.85177 36.6665 14.2821 36.6665 22.1851C36.6665 30.0881 30.0867 36.5184 21.9998 36.5184Z" fill="black" fill-opacity="0.19"/>
</svg>
