<svg width="61" height="61" viewBox="0 0 61 61" fill="none" xmlns="http://www.w3.org/2000/svg">
<path d="M16.6207 25.2225C16.0632 25.2225 15.5282 25.3075 14.9957 25.385C15.1682 24.805 15.3457 24.215 15.6307 23.685C15.9157 22.915 16.3607 22.2475 16.8032 21.575C17.1732 20.8475 17.8257 20.355 18.3057 19.7325C18.8082 19.1275 19.4932 18.725 20.0357 18.2225C20.5682 17.6975 21.2657 17.435 21.8207 17.065C22.4007 16.7325 22.9057 16.365 23.4457 16.19L24.7932 15.635L25.9782 15.1425L24.7657 10.2975L23.2732 10.6575C22.7957 10.7775 22.2132 10.9175 21.5507 11.085C20.8732 11.21 20.1507 11.5525 19.3457 11.865C18.5507 12.22 17.6307 12.46 16.7757 13.03C15.9157 13.575 14.9232 14.03 14.0482 14.76C13.2007 15.5125 12.1782 16.165 11.4232 17.1225C10.5982 18.0175 9.78322 18.9575 9.15072 20.0275C8.41822 21.0475 7.92072 22.1675 7.39572 23.275C6.92072 24.3825 6.53822 25.515 6.22572 26.615C5.63322 28.82 5.36822 30.915 5.26572 32.7075C5.18072 34.5025 5.23072 35.995 5.33572 37.075C5.37322 37.585 5.44322 38.08 5.49322 38.4225L5.55572 38.8425L5.62072 38.8275C6.06538 40.9045 7.08898 42.8133 8.57313 44.3329C10.0573 45.8525 11.9413 46.9209 14.0073 47.4145C16.0733 47.9081 18.2368 47.8067 20.2476 47.122C22.2584 46.4374 24.0342 45.1974 25.3697 43.5457C26.7053 41.8939 27.5458 39.8978 27.7943 37.7882C28.0427 35.6786 27.6888 33.5418 26.7736 31.625C25.8583 29.7082 24.4191 28.0896 22.6224 26.9566C20.8256 25.8235 18.7449 25.2223 16.6207 25.2225ZM44.1207 25.2225C43.5632 25.2225 43.0282 25.3075 42.4957 25.385C42.6682 24.805 42.8457 24.215 43.1307 23.685C43.4157 22.915 43.8607 22.2475 44.3032 21.575C44.6732 20.8475 45.3257 20.355 45.8057 19.7325C46.3082 19.1275 46.9932 18.725 47.5357 18.2225C48.0682 17.6975 48.7657 17.435 49.3207 17.065C49.9007 16.7325 50.4057 16.365 50.9457 16.19L52.2932 15.635L53.4782 15.1425L52.2657 10.2975L50.7732 10.6575C50.2957 10.7775 49.7132 10.9175 49.0507 11.085C48.3732 11.21 47.6507 11.5525 46.8457 11.865C46.0532 12.2225 45.1307 12.46 44.2757 13.0325C43.4157 13.5775 42.4232 14.0325 41.5482 14.7625C40.7007 15.515 39.6782 16.1675 38.9232 17.1225C38.0982 18.0175 37.2832 18.9575 36.6507 20.0275C35.9182 21.0475 35.4207 22.1675 34.8957 23.275C34.4207 24.3825 34.0382 25.515 33.7257 26.615C33.1332 28.82 32.8682 30.915 32.7657 32.7075C32.6807 34.5025 32.7307 35.995 32.8357 37.075C32.8732 37.585 32.9432 38.08 32.9932 38.4225L33.0557 38.8425L33.1207 38.8275C33.5654 40.9045 34.589 42.8133 36.0731 44.3329C37.5573 45.8525 39.4413 46.9209 41.5073 47.4145C43.5733 47.9081 45.7368 47.8067 47.7476 47.122C49.7584 46.4374 51.5342 45.1974 52.8697 43.5457C54.2052 41.8939 55.0458 39.8978 55.2943 37.7882C55.5427 35.6786 55.1888 33.5418 54.2736 31.625C53.3583 29.7082 51.9191 28.0896 50.1224 26.9566C48.3256 25.8235 46.2449 25.2223 44.1207 25.2225Z" fill="black" fill-opacity="0.88"/>
</svg>
