<svg width="25" height="25" viewBox="0 0 25 25" fill="none" xmlns="http://www.w3.org/2000/svg">
<path d="M24.663 13.6652C24.7123 13.2192 24.7436 12.7669 24.7436 12.3068C24.7436 11.8467 24.7123 11.3944 24.6622 10.9475L21.2363 9.72915C21.0657 9.16887 20.8419 8.63362 20.5712 8.12498L22.1299 4.84464C21.5626 4.13321 20.9175 3.48752 20.2065 2.91963L16.9262 4.48155C16.4149 4.2071 15.8775 3.98428 15.322 3.8164L14.1044 0.390515C13.6576 0.340433 13.2053 0.30835 12.7451 0.30835C12.285 0.30835 11.8327 0.339651 11.3859 0.390515L10.1683 3.8164C9.608 3.98621 9.07276 4.20923 8.56412 4.48155L5.28299 2.91963C4.5709 3.48696 3.9261 4.13254 3.35799 4.84464L4.9199 8.12342C4.64759 8.63206 4.42457 9.16808 4.25476 9.72759L0.828869 10.9483C0.778788 11.3944 0.746704 11.8482 0.746704 12.3076C0.746704 12.7669 0.778005 13.2192 0.828869 13.666L4.25476 14.8852C4.42457 15.4447 4.64759 15.9807 4.9199 16.4894L3.35877 19.7697C3.9261 20.4818 4.57168 21.1258 5.28378 21.6932L8.56177 20.132C9.07041 20.4043 9.60644 20.6281 10.1659 20.7987L11.3851 24.2238C11.8312 24.2731 12.2835 24.3044 12.7444 24.3044C13.2045 24.3044 13.656 24.2731 14.1028 24.2231L15.322 20.7972C15.8815 20.6266 16.4175 20.4028 16.9262 20.132L20.2065 21.6908C20.9186 21.1235 21.5626 20.4779 22.1299 19.7674L20.5704 16.4878C20.8427 15.9815 21.0665 15.4439 21.2371 14.8836L24.6622 13.6652H24.663ZM12.7451 16.1177C12.2446 16.1178 11.7489 16.0193 11.2864 15.8278C10.8239 15.6364 10.4037 15.3557 10.0497 15.0018C9.33468 14.2871 8.93289 13.3177 8.93269 12.3068C8.93248 11.2959 9.33387 10.3263 10.0485 9.6113C10.7632 8.89632 11.7327 8.49454 12.7436 8.49433C13.7545 8.49412 14.7241 8.89551 15.4391 9.61019C16.154 10.3249 16.5558 11.2943 16.556 12.3052C16.5562 13.3161 16.1549 14.2857 15.4402 15.0007C14.7255 15.7157 13.7561 16.1175 12.7451 16.1177Z" fill="black" fill-opacity="0.77"/>
</svg>
