<svg width="42" height="34" viewBox="0 0 42 34" fill="none" xmlns="http://www.w3.org/2000/svg">
<path fill-rule="evenodd" clip-rule="evenodd" d="M32.9839 3.5557C42.2862 9.85962 44.72 22.5046 38.4818 31.7098C37.3502 33.3798 35.0184 33.8204 33.3382 32.6818C31.6581 31.5432 31.2033 29.2142 32.335 27.5442C36.3097 21.679 34.7036 13.6365 28.8302 9.59683C24.3225 6.54207 18.3334 6.64395 13.9741 9.81172L18.236 12.6999L18.4818 12.8665L18.5487 13.209L18.5345 13.3182C18.7351 14.3457 18.1137 15.3511 17.0573 15.5862L4.97278 17.9764L4.90419 17.9894C4.42412 18.0801 3.87632 18.0061 3.42555 17.7006C3.01576 17.4229 2.71637 16.9823 2.60936 16.4342L2.58261 16.2972L2.56922 16.2287L0.324436 4.18731C0.151383 3.11905 0.854817 2.16928 1.88354 1.97488L2.0207 1.94896L2.29503 1.89711L2.5409 2.06374L7.62233 5.50729C14.4641 -0.970796 25.0339 -1.83178 32.9839 3.5557Z" fill="#6B91F4"/>
</svg>
