<svg width="39" height="45" viewBox="0 0 39 45" fill="none" xmlns="http://www.w3.org/2000/svg">
<path d="M38.8628 24.1866V38.4866C38.8628 41.6933 36.2628 44.38 32.9695 44.38C29.7628 44.38 27.0762 41.78 27.0762 38.4866V24.1866C27.0762 23.7533 27.5095 23.32 27.9428 23.32H30.1962V11.62L28.7228 9.62663C28.5495 9.45329 28.4628 9.19329 28.5495 8.93329L30.2828 1.65329C30.3695 1.30663 30.7162 0.959961 31.1495 0.959961H34.9628C35.3962 0.959961 35.7428 1.21996 35.8295 1.65329L37.5628 8.93329C37.6495 9.19329 37.5628 9.45329 37.3895 9.62663L35.8295 11.7066V23.32H38.0828C38.5162 23.32 38.8628 23.6666 38.8628 24.1866Z" fill="#6B91F4"/>
<path d="M21.3556 9.4533C21.3556 13.0066 19.6223 16.2133 16.7623 18.12V38.3133C16.7623 41.6066 14.0756 44.2933 10.7823 44.2933C7.48898 44.2933 4.80232 41.6066 4.80232 38.3133V18.2066C1.94232 16.2133 0.208984 13.0066 0.208984 9.53996C0.208984 6.24663 1.68232 3.2133 4.28232 1.21996C4.54232 1.04663 4.88898 0.959963 5.14898 1.1333C5.49565 1.21996 5.66898 1.47996 5.66898 1.82663V8.4133H15.8956V1.82663C15.8956 1.47996 16.069 1.21996 16.4156 1.04663C16.6756 0.873297 17.109 0.959963 17.369 1.1333C19.7956 3.12663 21.3556 6.15996 21.3556 9.4533Z" fill="#6B91F4"/>
</svg>
