<svg width="35" height="34" viewBox="0 0 35 34" fill="none" xmlns="http://www.w3.org/2000/svg">
<path d="M9.88086 33.2974H4.56836C3.44119 33.2974 2.36019 32.8338 1.56316 32.0086C0.766126 31.1835 0.318359 30.0643 0.318359 28.8974V15.6974C0.318359 14.5304 0.766126 13.4113 1.56316 12.5861C2.36019 11.7609 3.44119 11.2974 4.56836 11.2974H9.88086C11.008 11.2974 12.089 11.7609 12.8861 12.5861C13.6831 13.4113 14.1309 14.5304 14.1309 15.6974V28.8974C14.1309 30.0643 13.6831 31.1835 12.8861 32.0086C12.089 32.8338 11.008 33.2974 9.88086 33.2974ZM4.56836 13.4974C4.00477 13.4974 3.46427 13.7291 3.06576 14.1417C2.66724 14.5543 2.44336 15.1139 2.44336 15.6974V28.8974C2.44336 29.4808 2.66724 30.0404 3.06576 30.453C3.46427 30.8656 4.00477 31.0974 4.56836 31.0974H9.88086C10.4444 31.0974 10.9849 30.8656 11.3835 30.453C11.782 30.0404 12.0059 29.4808 12.0059 28.8974V15.6974C12.0059 15.1139 11.782 14.5543 11.3835 14.1417C10.9849 13.7291 10.4444 13.4974 9.88086 13.4974H4.56836Z" fill="#0066FF"/>
<path d="M7.22462 29.9974C7.15578 30.0055 7.08628 30.0055 7.01744 29.9974C6.9482 29.985 6.8805 29.9647 6.81556 29.9369C6.75254 29.9076 6.6921 29.8726 6.63494 29.8324C6.52066 29.7507 6.42166 29.6482 6.34275 29.5299C6.30401 29.4707 6.27024 29.4081 6.24181 29.3429C6.21497 29.2757 6.19538 29.2056 6.18337 29.1339C6.15502 28.9924 6.15502 28.8464 6.18337 28.7049C6.19538 28.6333 6.21497 28.5632 6.24181 28.4959C6.27024 28.4307 6.30401 28.3682 6.34275 28.3089C6.42166 28.1906 6.52066 28.0881 6.63494 28.0064C6.69216 27.9663 6.75258 27.9314 6.81556 27.9019C6.8805 27.8741 6.9482 27.8539 7.01744 27.8414C7.15422 27.8133 7.29502 27.8133 7.43181 27.8414C7.50105 27.8539 7.56875 27.8741 7.63369 27.9019C7.69666 27.9314 7.75709 27.9663 7.81431 28.0064C7.92858 28.0881 8.02759 28.1906 8.1065 28.3089C8.14724 28.3669 8.18113 28.4296 8.20744 28.4959C8.23427 28.5632 8.25387 28.6333 8.26587 28.7049C8.29422 28.8464 8.29422 28.9924 8.26587 29.1339C8.25387 29.2056 8.23427 29.2757 8.20744 29.3429C8.18113 29.4092 8.14724 29.472 8.1065 29.5299C8.02759 29.6482 7.92858 29.7507 7.81431 29.8324C7.75716 29.8726 7.69672 29.9076 7.63369 29.9369C7.56875 29.9647 7.50105 29.985 7.43181 29.9974C7.36297 30.0055 7.29346 30.0055 7.22462 29.9974Z" fill="#0066FF"/>
<path d="M30.0684 26.6974H13.0684V24.4974H30.0684C30.6319 24.4974 31.1724 24.2656 31.571 23.853C31.9695 23.4404 32.1934 22.8808 32.1934 22.2974V4.69736C32.1934 4.11389 31.9695 3.55431 31.571 3.14173C31.1724 2.72915 30.6319 2.49736 30.0684 2.49736H8.81836C8.25477 2.49736 7.71427 2.72915 7.31576 3.14173C6.91724 3.55431 6.69336 4.11389 6.69336 4.69736V12.3974H4.56836V4.69736C4.56836 3.53041 5.01613 2.41125 5.81316 1.58609C6.61018 0.760933 7.69119 0.297363 8.81836 0.297363H30.0684C31.1955 0.297363 32.2765 0.760933 33.0736 1.58609C33.8706 2.41125 34.3184 3.53041 34.3184 4.69736V22.2974C34.3184 23.4643 33.8706 24.5835 33.0736 25.4086C32.2765 26.2338 31.1955 26.6974 30.0684 26.6974Z" fill="#0066FF"/>
<path d="M19.4434 23.3973C19.1616 23.3973 18.8914 23.2814 18.6921 23.0751C18.4929 22.8688 18.3809 22.589 18.3809 22.2973C18.373 22.226 18.373 22.1541 18.3809 22.0828C18.4042 21.94 18.4588 21.8045 18.5403 21.6868C18.5768 21.6271 18.6196 21.5718 18.6678 21.5218C18.7915 21.3857 18.9467 21.2846 19.1186 21.2278C19.2906 21.171 19.4737 21.1605 19.6506 21.1973C19.7177 21.2115 19.7835 21.2317 19.8472 21.2578C19.9124 21.2861 19.9746 21.3212 20.0331 21.3623C20.0921 21.4003 20.1458 21.4465 20.1925 21.4998C20.2939 21.6041 20.3739 21.7285 20.4277 21.8655C20.4816 22.0025 20.5082 22.1494 20.5059 22.2973C20.5059 22.589 20.394 22.8688 20.1947 23.0751C19.9955 23.2814 19.7252 23.3973 19.4434 23.3973Z" fill="#0066FF"/>
<path d="M24.7559 31.0975H14.1309C13.8491 31.0975 13.5788 30.9816 13.3796 30.7753C13.1803 30.569 13.0684 30.2892 13.0684 29.9975C13.0684 29.7057 13.1803 29.4259 13.3796 29.2196C13.5788 29.0134 13.8491 28.8975 14.1309 28.8975H24.7559C25.0377 28.8975 25.3079 29.0134 25.5072 29.2196C25.7064 29.4259 25.8184 29.7057 25.8184 29.9975C25.8184 30.2892 25.7064 30.569 25.5072 30.7753C25.3079 30.9816 25.0377 31.0975 24.7559 31.0975Z" fill="#0066FF"/>
<path d="M22.6309 31.0974C22.3491 31.0974 22.0788 30.9815 21.8796 30.7753C21.6803 30.569 21.5684 30.2892 21.5684 29.9974V25.5974C21.5684 25.3057 21.6803 25.0259 21.8796 24.8196C22.0788 24.6133 22.3491 24.4974 22.6309 24.4974C22.9127 24.4974 23.1829 24.6133 23.3822 24.8196C23.5814 25.0259 23.6934 25.3057 23.6934 25.5974V29.9974C23.6934 30.2892 23.5814 30.569 23.3822 30.7753C23.1829 30.9815 22.9127 31.0974 22.6309 31.0974Z" fill="#0066FF"/>
<path d="M16.2559 31.0974C15.9741 31.0974 15.7038 30.9815 15.5046 30.7753C15.3053 30.569 15.1934 30.2892 15.1934 29.9974V25.5974C15.1934 25.3057 15.3053 25.0259 15.5046 24.8196C15.7038 24.6133 15.9741 24.4974 16.2559 24.4974C16.5377 24.4974 16.8079 24.6133 17.0072 24.8196C17.2064 25.0259 17.3184 25.3057 17.3184 25.5974V29.9974C17.3184 30.2892 17.2064 30.569 17.0072 30.7753C16.8079 30.9815 16.5377 31.0974 16.2559 31.0974Z" fill="#0066FF"/>
</svg>
