<svg width="105" height="106" viewBox="0 0 105 106" fill="none" xmlns="http://www.w3.org/2000/svg">
<path d="M0.444336 51.2159C0.444336 23.3061 23.0697 0.680664 50.9796 0.680664V0.680664C80.7501 0.680664 104.884 24.8144 104.884 54.5849V105.119H52.6636C23.8237 105.119 0.444336 81.7399 0.444336 52.9V51.2159Z" fill="#14D182"/>
<path d="M48.4122 56.0635H51.519C52.0912 56.0635 52.5 55.6484 52.5 55.0674V50.7512C52.5 50.1701 52.0912 49.7551 51.519 49.7551H48.4122C47.8399 49.7551 47.4312 50.1701 47.4312 50.7512V55.0674C47.4312 55.6484 47.9217 56.0635 48.4122 56.0635Z" fill="white"/>
<path d="M58.9594 46.3521H55.8527C55.2804 46.3521 54.8716 46.7672 54.8716 47.3482V55.0676C54.8716 55.6486 55.2804 56.0637 55.8527 56.0637H58.9594C59.5317 56.0637 59.9405 55.6486 59.9405 55.0676V47.3482C59.9405 46.8502 59.5317 46.3521 58.9594 46.3521Z" fill="white"/>
<path d="M70.4868 32.4903V35.0634C70.4868 35.8105 71.0591 36.3915 71.7949 36.3915C72.5307 36.3915 73.103 35.8105 73.103 35.0634V29.2531C73.103 28.5061 72.5307 27.925 71.7949 27.925H66.0719C65.3361 27.925 64.7638 28.5061 64.7638 29.2531C64.7638 30.0002 65.3361 30.5812 66.0719 30.5812H68.6064L61.7389 37.5536L58.5504 34.3164C58.0598 33.8184 57.1605 33.8184 56.67 34.3164L47.9221 43.1979C47.4316 43.6959 47.4316 44.6089 47.9221 45.107C48.1674 45.356 48.4944 45.522 48.8214 45.522C49.1484 45.522 49.4755 45.356 49.7207 45.107L57.4876 37.2215L60.676 40.4587C61.1666 40.9567 62.0659 40.9567 62.5564 40.4587L70.4868 32.4903Z" fill="white"/>
<path d="M67.2979 49.7552V43.9449C67.2979 43.3639 66.8891 42.9489 66.3168 42.9489H63.2101C62.6378 42.9489 62.229 43.4469 62.229 43.9449V54.9845C63.5371 52.9924 65.254 51.1663 67.2979 49.7552Z" fill="white"/>
<path d="M70.5685 39.6286C69.9962 39.6286 69.5874 40.0437 69.5874 40.6247V48.5101C71.1408 47.7631 72.8576 47.182 74.738 46.933V40.6247C74.738 40.0437 74.2475 39.6286 73.757 39.6286H70.5685Z" fill="white"/>
<path d="M42.199 62.4548C41.0544 62.4548 40.0733 61.4587 40.0733 60.2967V23.1937C40.0733 22.0316 41.0544 21.0356 42.199 21.0356H44.6516V16.6364H42.199C38.6835 16.6364 35.7402 19.5415 35.7402 23.1937V60.2137C35.7402 63.8659 38.6017 66.771 42.199 66.771H59.613C59.5312 66.024 59.4495 65.36 59.4495 64.6129C59.4495 63.8659 59.5312 63.1188 59.613 62.4548H42.199V62.4548Z" fill="white"/>
<path d="M82.0956 23.1937V47.514C83.6489 48.012 85.0388 48.5931 86.4287 49.4231V23.1937C86.4287 19.5415 83.5672 16.6364 79.9699 16.6364H77.272V21.0356H79.9699C81.1145 21.0356 82.0956 22.0316 82.0956 23.1937Z" fill="white"/>
<path d="M49.4754 22.5297H72.3671C73.2664 22.5297 74.0022 21.7827 74.0022 20.8697V14.2293C74.0022 13.3163 73.2664 12.5692 72.3671 12.5692H68.5245C68.361 8.41899 65.009 5.09882 60.8395 5.09882C56.6699 5.09882 53.3997 8.41899 53.1544 12.5692H49.3119C48.4126 12.5692 47.6768 13.3163 47.6768 14.2293V20.8697C47.8403 21.7827 48.5761 22.5297 49.4754 22.5297ZM60.9212 9.99608C62.5564 9.99608 63.8645 11.3241 63.8645 12.9842C63.8645 14.6443 62.5564 15.9724 60.9212 15.9724C59.2861 15.9724 57.978 14.6443 57.978 12.9842C57.978 11.3241 59.2861 9.99608 60.9212 9.99608Z" fill="white"/>
<path d="M94.8502 77.2297L88.4732 72.0004C89.863 69.8423 90.5988 67.3522 90.5988 64.6131C90.5988 57.0597 84.5489 50.9173 77.1091 50.9173C69.6693 50.9173 63.5376 57.0597 63.5376 64.6131C63.5376 72.1665 69.5875 78.3088 77.0273 78.3088C79.7253 78.3088 82.178 77.4787 84.3036 76.1507L89.4543 82.625C89.6178 82.791 89.7813 83.04 90.0266 83.206C91.6617 84.5341 94.0326 84.2851 95.3407 82.625C96.7305 80.9649 96.4853 78.5578 94.8502 77.2297ZM67.8707 64.6131C67.8707 59.4668 72.0402 55.2336 77.1091 55.2336C82.178 55.2336 86.3475 59.4668 86.3475 64.6131C86.3475 69.7593 82.178 73.9926 77.1091 73.9926C72.0402 73.9926 67.8707 69.7593 67.8707 64.6131Z" fill="white"/>
<path d="M79.3979 60.6287L75.9642 64.6129L74.7378 63.2019C74.0838 62.4548 72.9392 62.3718 72.1217 63.0358C71.3858 63.6999 71.3041 64.8619 71.9581 65.692L74.5743 68.6802C74.9014 69.0952 75.3919 69.3442 75.9642 69.3442C76.4547 69.3442 77.027 69.0952 77.354 68.6802L82.1776 63.1189C82.8317 62.3718 82.7499 61.2098 82.0141 60.4627C81.2783 59.7987 80.052 59.7987 79.3979 60.6287Z" fill="white"/>
</svg>
