<svg width="49" height="34" viewBox="0 0 49 34" fill="none" xmlns="http://www.w3.org/2000/svg">
<path d="M33.5449 14.3132C33.5449 15.2556 34.3449 16.0492 35.2949 16.0492C36.2449 16.0492 37.0449 15.2556 37.0449 14.3132C37.0449 9.9484 33.4449 6.3772 29.0449 6.3772C28.0949 6.3772 27.2949 7.1708 27.2949 8.1132C27.2949 9.0556 28.0949 9.8492 29.0449 9.8492C31.5449 9.8492 33.5449 11.8332 33.5449 14.3132Z" fill="#0066FF"/>
<path d="M47.9449 30.582L40.3449 23.0428C42.2449 20.6124 43.3949 17.5868 43.3949 14.3132C43.3949 6.4764 36.9449 0.0780029 29.0449 0.0780029C25.5449 0.0780029 22.2949 1.3676 19.7949 3.4508C19.8949 3.55 19.9949 3.6492 20.1449 3.7484L21.7449 5.3356C21.9449 5.534 22.0949 5.7324 22.2449 5.9308C24.0949 4.4428 26.4449 3.55 29.0449 3.55C35.0449 3.55 39.8949 8.3612 39.8949 14.3132C39.8949 20.2156 35.0449 25.0764 29.0449 25.0764C26.2949 25.0764 23.7949 24.0348 21.8449 22.3484C21.7949 22.398 21.7949 22.4476 21.7449 22.4972L20.1449 24.0844C19.8949 24.3324 19.5949 24.5804 19.2949 24.7292C21.8449 27.11 25.2949 28.5484 29.0449 28.5484C32.3449 28.5484 35.4449 27.4076 37.8449 25.5228L45.4449 33.062C45.7949 33.4092 46.2449 33.558 46.6949 33.558C47.1449 33.558 47.5949 33.4092 47.9449 33.062C48.5949 32.3676 48.5949 31.2268 47.9449 30.582Z" fill="#0066FF"/>
<path d="M19.8453 19.422L18.1953 17.3884C18.1453 17.3388 18.1453 17.2396 18.1453 17.1404C18.2953 16.8428 18.3953 16.5948 18.4953 16.2972C18.5453 16.198 18.5953 16.1484 18.6953 16.1484L21.3453 15.9004C21.7453 15.8508 22.0953 15.5036 22.0953 15.1068V12.8748C22.0953 12.478 21.7953 12.0812 21.3453 12.0812L18.6953 11.6844C18.5953 11.6844 18.5453 11.6348 18.4953 11.5356C18.3953 11.238 18.2953 10.9404 18.1453 10.6924C18.0953 10.5932 18.0953 10.494 18.1953 10.4444L19.8453 8.4108C20.0953 8.0636 20.0953 7.6172 19.7953 7.3196L18.1953 5.73241C17.8953 5.43481 17.3953 5.43481 17.0953 5.68281L15.0453 7.3196C14.9953 7.3692 14.8453 7.3692 14.7953 7.3692C14.4953 7.2204 14.2453 7.1212 13.9453 7.022C13.8453 6.9724 13.7953 6.9228 13.7953 6.8236L13.5453 4.19481C13.4953 3.79801 13.1453 3.45081 12.7453 3.45081H10.4953C10.0953 3.45081 9.69531 3.74841 9.69531 4.19481L9.44531 6.8236C9.44531 6.9228 9.39531 6.9724 9.29531 7.022C8.99531 7.1212 8.69531 7.2204 8.44531 7.3692C8.34531 7.4188 8.24531 7.4188 8.19531 7.3196L6.14531 5.68281C5.79531 5.43481 5.34531 5.43481 5.04531 5.73241L3.44531 7.3196C2.94531 7.5676 2.89531 8.0636 3.19531 8.3612L4.84531 10.3948C4.89531 10.4444 4.89531 10.5932 4.89531 10.6428C4.74531 10.9404 4.64531 11.1884 4.54531 11.486C4.49531 11.5852 4.44531 11.6348 4.34531 11.6348L1.69531 11.9324C1.29531 11.982 0.945312 12.3292 0.945312 12.726V14.958C0.945312 15.4044 1.24531 15.8012 1.69531 15.8012L4.34531 16.0492C4.44531 16.0492 4.49531 16.0988 4.54531 16.198C4.64531 16.4956 4.74531 16.7932 4.89531 17.0412C4.94531 17.1404 4.94531 17.2396 4.84531 17.2892L3.19531 19.422C2.94531 19.7692 2.94531 20.2156 3.24531 20.5132L4.84531 22.1004C5.14531 22.398 5.64531 22.398 5.94531 22.15L7.99531 20.5132C8.04531 20.4636 8.19531 20.4636 8.24531 20.4636C8.54531 20.6124 8.79531 20.7116 9.09531 20.8108C9.19531 20.8604 9.24531 20.91 9.24531 21.0092L9.49531 23.638C9.54531 24.0348 9.89531 24.382 10.2953 24.382H12.5453C12.9453 24.382 13.3453 24.0844 13.3453 23.638L13.5953 21.0092C13.5953 20.91 13.6453 20.8604 13.7453 20.8108C14.0453 20.7116 14.3453 20.6124 14.5953 20.4636C14.6953 20.414 14.7953 20.414 14.8453 20.5132L16.8953 22.15C17.2453 22.398 17.6953 22.398 17.9953 22.1004L19.5953 20.5132C20.0453 20.2156 20.0953 19.7196 19.8453 19.422ZM11.4953 17.7356C9.34531 17.7356 7.64531 15.9996 7.64531 13.9164C7.64531 11.7836 9.39531 10.0972 11.4953 10.0972C13.6453 10.0972 15.3453 11.8332 15.3453 13.9164C15.3953 15.9996 13.6453 17.7356 11.4953 17.7356Z" fill="#0066FF"/>
</svg>
