<svg width="25" height="25" viewBox="0 0 25 25" fill="none" xmlns="http://www.w3.org/2000/svg">
<path d="M20.5165 24.4575C19.3685 24.4505 18.0395 24.1235 16.6265 23.5425C13.8035 22.3795 10.5865 20.1705 7.59052 17.1755C4.59552 14.1805 2.38151 10.9625 1.21952 8.13749C0.056515 5.31449 -0.076485 2.81749 1.29452 1.44649C2.66452 0.0774908 5.16152 0.209491 7.98552 1.37249C8.29152 1.49749 8.60251 1.63749 8.91751 1.78749C8.58651 1.90049 8.25952 2.02749 7.94352 2.17049L7.80252 2.11249C5.13851 1.01549 3.00451 0.976491 1.91351 2.06649C0.823515 3.15749 0.863515 5.28749 1.95951 7.95149C3.05651 10.6145 5.19452 13.7445 8.10652 16.6555C11.0165 19.5665 14.1505 21.7055 16.8145 22.8025C19.4785 23.8995 21.6045 23.9385 22.6945 22.8475C23.7855 21.7575 23.7505 19.6275 22.6535 16.9635C22.5455 16.7005 22.4235 16.4325 22.2955 16.1605C22.4295 15.8435 22.5455 15.5185 22.6495 15.1875C22.9315 15.7275 23.1795 16.2575 23.3935 16.7765C24.5565 19.5995 24.6855 22.0965 23.3145 23.4675C22.6295 24.1525 21.6635 24.4645 20.5155 24.4575H20.5165ZM4.09651 24.4575C2.94851 24.4655 1.97952 24.1525 1.29452 23.4675C-0.075485 22.0975 0.056515 19.5995 1.21952 16.7765C1.45452 16.2045 1.73651 15.6165 2.05551 15.0165C2.15351 15.3495 2.26751 15.6765 2.39551 15.9945C2.2405 16.313 2.0951 16.6362 1.95951 16.9635C0.862515 19.6265 0.827515 21.7575 1.91751 22.8475C3.00851 23.9385 5.13851 23.8985 7.80252 22.8025C8.72452 22.4225 10.8235 21.1125 11.8285 20.4945C12.0445 20.6565 12.2615 20.8145 12.4775 20.9685C11.3205 21.7015 9.06252 23.0985 7.98552 23.5425C6.57352 24.1235 5.24551 24.4495 4.09751 24.4575H4.09651ZM13.8495 19.9995C13.6323 19.8585 13.4173 19.7141 13.2045 19.5665C14.3659 18.6673 15.4689 17.695 16.5065 16.6555C19.4185 13.7445 21.5565 10.6155 22.6535 7.95149C23.7505 5.28749 23.7855 3.15749 22.6955 2.06649C21.6045 0.976491 19.4785 1.01149 16.8155 2.10849L16.7435 2.13749C16.42 1.99492 16.0896 1.86843 15.7535 1.75849C16.0485 1.61849 16.3405 1.48649 16.6275 1.36849C19.4515 0.205491 21.9485 0.0764908 23.3185 1.44649C24.6885 2.81649 24.5565 5.31049 23.3935 8.13449C22.2315 10.9575 20.0175 14.1805 17.0235 17.1745C16.0225 18.1783 14.9626 19.1216 13.8495 19.9995V19.9995ZM15.7995 21.1555C15.4745 20.9855 14.0015 20.0825 13.6645 19.8825C14.6665 19.0765 16.0875 17.9125 17.0605 16.9385C18.7785 15.2205 21.0415 12.1515 22.2225 10.3835C22.2145 10.4945 22.1295 12.8735 22.1175 12.9835C21.9295 14.7987 21.2385 16.5255 20.1223 17.9693C19.0061 19.413 17.509 20.5165 15.7995 21.1555V21.1555ZM8.87151 21.1215C5.46451 19.8135 2.82852 16.4115 2.58452 12.9235C2.57452 12.7725 2.52451 12.5245 2.53051 11.9395C2.53751 11.3375 2.58651 10.5165 2.68951 10.6565C3.72551 12.0765 6.66552 16.1115 8.04152 17.4865C9.01452 18.4595 9.96851 19.1105 10.9705 19.9165C10.2749 20.3257 9.57482 20.7274 8.87051 21.1215H8.87151ZM12.3015 18.9135C11.0862 17.9903 9.93578 16.9846 8.85851 15.9035C6.31851 13.3635 4.39651 10.6495 3.29051 8.32149C4.74051 4.72449 8.26351 2.18349 12.3775 2.18349C16.4285 2.18349 19.9075 4.64849 21.3975 8.15949C20.3045 10.5225 18.3525 13.3045 15.7545 15.9025C14.6746 16.9845 13.5212 17.9906 12.3025 18.9135H12.3015Z" fill="black" fill-opacity="0.77"/>
</svg>
